<?xml version="1.0"?>
<svg width="1325px" height="122px" viewBox="58 76 1325 122" version="1.1" xmlns="http://www.w3.org/2000/svg" xmlns:xlink="http://www.w3.org/1999/xlink">
    <defs>
        <path d="M486.171875,24.609375 L472.882812,32.484375 C470.398425,28.1718534 468.031261,25.3593816 465.78125,24.046875 C463.437488,22.5468675 460.414081,21.796875 456.710938,21.796875 C452.16404,21.796875 448.39064,23.0859246 445.390625,25.6640625 C442.39061,28.1953252 440.890625,31.3827933 440.890625,35.2265625 C440.890625,40.523464 444.828086,44.7890463 452.703125,48.0234375 L463.53125,52.453125 C472.343794,56.0156428 478.789042,60.3632556 482.867188,65.4960938 C486.945333,70.6289319 488.984375,76.9218377 488.984375,84.375 C488.984375,94.3594249 485.656283,102.609342 479,109.125 C472.296841,115.687533 463.976612,118.96875 454.039062,118.96875 C444.61714,118.96875 436.835968,116.179715 430.695312,110.601562 C424.648407,105.02341 420.875008,97.1719256 419.375,87.046875 L435.96875,83.390625 C436.718754,89.7656569 438.031241,94.1718628 439.90625,96.609375 C443.281267,101.296898 448.203093,103.640625 454.671875,103.640625 C459.781276,103.640625 464.023421,101.929705 467.398438,98.5078125 C470.773454,95.0859204 472.460938,90.7500263 472.460938,85.5 C472.460938,83.3906145 472.167972,81.45704 471.582031,79.6992188 C470.996091,77.9413975 470.082037,76.3242261 468.839844,74.8476562 C467.59765,73.3710864 465.992197,71.9882877 464.023438,70.6992188 C462.054678,69.4101498 459.710951,68.1796934 456.992188,67.0078125 L446.515625,62.6484375 C431.656176,56.3671561 424.226562,47.179748 424.226562,35.0859375 C424.226562,26.9296467 427.343719,20.1094024 433.578125,14.625 C439.812531,9.09372234 447.570266,6.328125 456.851562,6.328125 C469.36725,6.328125 479.14059,12.4218141 486.171875,24.609375 Z M525.125,50.90625 L571.953125,50.90625 L571.953125,8.4375 L588.335938,8.4375 L588.335938,117 L571.953125,117 L571.953125,66.3046875 L525.125,66.3046875 L525.125,117 L508.742188,117 L508.742188,8.4375 L525.125,8.4375 L525.125,50.90625 Z M608.9375,62.2265625 C608.9375,46.9452361 614.539006,33.8203673 625.742188,22.8515625 C636.898493,11.8827577 650.304609,6.3984375 665.960938,6.3984375 C681.429765,6.3984375 694.695257,11.9296322 705.757812,22.9921875 C716.867243,34.0547428 722.421875,47.3436724 722.421875,62.859375 C722.421875,78.468828 716.843806,91.7108831 705.6875,102.585938 C694.484319,113.507867 680.961017,118.96875 665.117188,118.96875 C651.101492,118.96875 638.515681,114.117236 627.359375,104.414062 C615.078064,93.6796338 608.9375,79.6172745 608.9375,62.2265625 Z M625.460938,62.4375 C625.460938,74.43756 629.492147,84.3046488 637.554688,92.0390625 C645.570353,99.7734762 654.828072,103.640625 665.328125,103.640625 C676.718807,103.640625 686.328086,99.7031644 694.15625,91.828125 C701.984414,83.8593352 705.898438,74.1563072 705.898438,62.71875 C705.898438,51.1405671 702.031289,41.4375391 694.296875,33.609375 C686.609337,25.7343356 677.093807,21.796875 665.75,21.796875 C654.453069,21.796875 644.914101,25.7343356 637.132812,33.609375 C629.351524,41.3906639 625.460938,50.9999428 625.460938,62.4375 Z M779.796875,70.734375 L813.40625,117 L793.367188,117 L762.359375,72.5625 L759.40625,72.5625 L759.40625,117 L743.023438,117 L743.023438,8.4375 L762.21875,8.4375 C776.562572,8.4375 786.921843,11.1327855 793.296875,16.5234375 C800.32816,22.5234675 803.84375,30.4452633 803.84375,40.2890625 C803.84375,47.9766009 801.640647,54.5859098 797.234375,60.1171875 C792.828103,65.6484652 787.015661,69.1874923 779.796875,70.734375 Z M759.40625,58.2890625 L764.609375,58.2890625 C780.125078,58.2890625 787.882812,52.3594343 787.882812,40.5 C787.882812,29.3905695 780.336013,23.8359375 765.242188,23.8359375 L759.40625,23.8359375 L759.40625,58.2890625 Z M858.40625,23.8359375 L858.40625,117 L842.023438,117 L842.023438,23.8359375 L817.0625,23.8359375 L817.0625,8.4375 L883.296875,8.4375 L883.296875,23.8359375 L858.40625,23.8359375 Z M996.570312,23.8359375 L958.742188,23.8359375 L958.742188,49.921875 L995.234375,49.921875 L995.234375,65.3203125 L958.742188,65.3203125 L958.742188,117 L942.359375,117 L942.359375,8.4375 L996.570312,8.4375 L996.570312,23.8359375 Z M1031.9375,8.4375 L1031.9375,117 L1015.55469,117 L1015.55469,8.4375 L1031.9375,8.4375 Z M1074.40625,8.4375 L1074.40625,101.601562 L1106.32812,101.601562 L1106.32812,117 L1058.02344,117 L1058.02344,8.4375 L1074.40625,8.4375 Z M1118.07031,117 L1140.92188,0.28125 L1178.1875,84.65625 L1216.78906,0.28125 L1237.32031,117 L1220.51562,117 L1210.03906,51.46875 L1177.90625,121.992188 L1146.6875,51.3984375 L1135.01562,117 L1118.07031,117 Z M1321.69531,24.609375 L1308.40625,32.484375 C1305.92186,28.1718534 1303.5547,25.3593816 1301.30469,24.046875 C1298.96093,22.5468675 1295.93752,21.796875 1292.23438,21.796875 C1287.68748,21.796875 1283.91408,23.0859246 1280.91406,25.6640625 C1277.91405,28.1953252 1276.41406,31.3827933 1276.41406,35.2265625 C1276.41406,40.523464 1280.35152,44.7890463 1288.22656,48.0234375 L1299.05469,52.453125 C1307.86723,56.0156428 1314.31248,60.3632556 1318.39062,65.4960938 C1322.46877,70.6289319 1324.50781,76.9218377 1324.50781,84.375 C1324.50781,94.3594249 1321.17972,102.609342 1314.52344,109.125 C1307.82028,115.687533 1299.50005,118.96875 1289.5625,118.96875 C1280.14058,118.96875 1272.35941,116.179715 1266.21875,110.601562 C1260.17184,105.02341 1256.39845,97.1719256 1254.89844,87.046875 L1271.49219,83.390625 C1272.24219,89.7656569 1273.55468,94.1718628 1275.42969,96.609375 C1278.8047,101.296898 1283.72653,103.640625 1290.19531,103.640625 C1295.30471,103.640625 1299.54686,101.929705 1302.92188,98.5078125 C1306.29689,95.0859204 1307.98438,90.7500263 1307.98438,85.5 C1307.98438,83.3906145 1307.69141,81.45704 1307.10547,79.6992188 C1306.51953,77.9413975 1305.60547,76.3242261 1304.36328,74.8476562 C1303.12109,73.3710864 1301.51563,71.9882877 1299.54688,70.6992188 C1297.57812,69.4101498 1295.23439,68.1796934 1292.51562,67.0078125 L1282.03906,62.6484375 C1267.17961,56.3671561 1259.75,47.179748 1259.75,35.0859375 C1259.75,26.9296467 1262.86716,20.1094024 1269.10156,14.625 C1275.33597,9.09372234 1283.0937,6.328125 1292.375,6.328125 C1304.89069,6.328125 1314.66403,12.4218141 1321.69531,24.609375 Z" id="path-1"></path>
        <filter x="-50%" y="-50%" width="200%" height="200%" filterUnits="objectBoundingBox" id="filter-2">
            <feOffset dx="0" dy="0" in="SourceAlpha" result="shadowOffsetOuter1"></feOffset>
            <feColorMatrix values="0 0 0 0 0   0 0 0 0 0   0 0 0 0 0  0 0 0 0.5 0" type="matrix" in="shadowOffsetOuter1"></feColorMatrix>
        </filter>
    </defs>
    <g id="Group" stroke="none" stroke-width="1" fill="none" fill-rule="evenodd" transform="translate(58.000000, 76.000000)">
        <g id="SCI-FI-SHORT-FILMS">
            <use fill="black" fill-opacity="1" filter="url(#filter-2)" xlink:href="#path-1"></use>
            <use fill="#000000" fill-rule="evenodd" xlink:href="#path-1"></use>
        </g>
        <path d="M67.390625,24.609375 L54.1015625,32.484375 C51.6171751,28.1718534 49.2500113,25.3593816 47,24.046875 C44.6562383,22.5468675 41.632831,21.796875 37.9296875,21.796875 C33.3827898,21.796875 29.60939,23.0859246 26.609375,25.6640625 C23.60936,28.1953252 22.109375,31.3827933 22.109375,35.2265625 C22.109375,40.523464 26.0468356,44.7890463 33.921875,48.0234375 L44.75,52.453125 C53.5625441,56.0156428 60.0077921,60.3632556 64.0859375,65.4960938 C68.1640829,70.6289319 70.203125,76.9218377 70.203125,84.375 C70.203125,94.3594249 66.8750333,102.609342 60.21875,109.125 C53.5155915,115.687533 45.1953622,118.96875 35.2578125,118.96875 C25.8358904,118.96875 18.0547182,116.179715 11.9140625,110.601562 C5.86715727,105.02341 2.0937575,97.1719256 0.59375,87.046875 L17.1875,83.390625 C17.9375038,89.7656569 19.2499906,94.1718628 21.125,96.609375 C24.5000169,101.296898 29.4218427,103.640625 35.890625,103.640625 C41.0000255,103.640625 45.2421706,101.929705 48.6171875,98.5078125 C51.9922044,95.0859204 53.6796875,90.7500263 53.6796875,85.5 C53.6796875,83.3906145 53.3867217,81.45704 52.8007812,79.6992188 C52.2148408,77.9413975 51.3007875,76.3242261 50.0585938,74.8476562 C48.8164,73.3710864 47.2109473,71.9882877 45.2421875,70.6992188 C43.2734277,69.4101498 40.9297011,68.1796934 38.2109375,67.0078125 L27.734375,62.6484375 C12.8749257,56.3671561 5.4453125,47.179748 5.4453125,35.0859375 C5.4453125,26.9296467 8.56246883,20.1094024 14.796875,14.625 C21.0312812,9.09372234 28.7890161,6.328125 38.0703125,6.328125 C50.5860001,6.328125 60.3593398,12.4218141 67.390625,24.609375 Z" id="Path" fill="#4CC1FC"></path>
        <path d="M170.1875,14.2734375 L170.1875,33.6796875 C160.718703,25.7577729 150.921926,21.796875 140.796875,21.796875 C129.640569,21.796875 120.242226,25.8046474 112.601562,33.8203125 C104.914024,41.7891023 101.070312,51.5390048 101.070312,63.0703125 C101.070312,74.4609945 104.914024,84.0702734 112.601562,91.8984375 C120.289101,99.7266016 129.710882,103.640625 140.867188,103.640625 C146.632841,103.640625 151.53123,102.703134 155.5625,100.828125 C157.812511,99.8906203 160.144519,98.625008 162.558594,97.03125 C164.972668,95.437492 167.515612,93.5156363 170.1875,91.265625 L170.1875,111.023438 C160.812453,116.320339 150.968802,118.96875 140.65625,118.96875 C125.140547,118.96875 111.898492,113.554742 100.929688,102.726562 C90.0077579,91.8046329 84.546875,78.6328896 84.546875,63.2109375 C84.546875,49.3827434 89.1171418,37.0547416 98.2578125,26.2265625 C109.507869,12.9608712 124.062411,6.328125 141.921875,6.328125 C151.671924,6.328125 161.093705,8.97653602 170.1875,14.2734375 Z" id="Path" fill="#4CC1FC"></path>
        <polygon id="Path" fill="#4CC1FC" points="207.242188 8.4375 207.242188 117 190.859375 117 190.859375 8.4375"></polygon>
        <polygon id="Path" fill="#4CC1FC" points="318.898438 23.8359375 281.070312 23.8359375 281.070312 49.921875 317.5625 49.921875 317.5625 65.3203125 281.070312 65.3203125 281.070312 117 264.6875 117 264.6875 8.4375 318.898438 8.4375"></polygon>
        <polygon id="Path" fill="#4CC1FC" points="220.320312 75.3046875 251.679688 75.3046875 251.679688 89.0859375 220.320312 89.0859375"></polygon>
        <polygon id="Path" fill="#4CC1FC" points="354.265625 8.4375 354.265625 117 337.882812 117 337.882812 8.4375"></polygon>
    </g>
</svg>
